<?xml version="1.0" encoding="utf-8" standalone="no"?>
<!DOCTYPE svg PUBLIC "-//W3C//DTD SVG 1.1//EN"
  "http://www.w3.org/Graphics/SVG/1.1/DTD/svg11.dtd">
<svg xmlns:xlink="http://www.w3.org/1999/xlink" width="191.521562pt" height="208.637812pt" viewBox="0 0 191.521562 208.637812" xmlns="http://www.w3.org/2000/svg" version="1.1">
 <metadata>
  <rdf:RDF xmlns:dc="http://purl.org/dc/elements/1.1/" xmlns:cc="http://creativecommons.org/ns#" xmlns:rdf="http://www.w3.org/1999/02/22-rdf-syntax-ns#">
   <cc:Work>
    <dc:type rdf:resource="http://purl.org/dc/dcmitype/StillImage"/>
    <dc:date>2025-09-09T19:01:29.942648</dc:date>
    <dc:format>image/svg+xml</dc:format>
    <dc:creator>
     <cc:Agent>
      <dc:title>Matplotlib v3.10.6, https://matplotlib.org/</dc:title>
     </cc:Agent>
    </dc:creator>
   </cc:Work>
  </rdf:RDF>
 </metadata>
 <defs>
  <style type="text/css">*{stroke-linejoin: round; stroke-linecap: butt}</style>
 </defs>
 <g id="figure_1">
  <g id="patch_1">
   <path d="M 0 208.637812 
L 191.521562 208.637812 
L 191.521562 0 
L 0 0 
z
" style="fill: #ffffff"/>
  </g>
  <g id="axes_1">
   <g id="patch_2">
    <path d="M 35.16936 169.858991 
C 40.451776 169.858991 45.518549 167.760265 49.253781 164.025032 
C 52.989013 160.2898 55.087739 155.223027 55.087739 149.940611 
C 55.087739 144.658195 52.989013 139.591422 49.253781 135.85619 
C 45.518549 132.120958 40.451776 130.022232 35.16936 130.022232 
C 29.886944 130.022232 24.820171 132.120958 21.084938 135.85619 
C 17.349706 139.591422 15.25098 144.658195 15.25098 149.940611 
C 15.25098 155.223027 17.349706 160.2898 21.084938 164.025032 
C 24.820171 167.760265 29.886944 169.858991 35.16936 169.858991 
z
" clip-path="url(#p50061ac8bd)" style="fill: #f08080; stroke: #f08080; stroke-linejoin: miter"/>
   </g>
   <g id="patch_3">
    <path d="M 72.639196 168.87574 
C 76.496927 168.87574 80.197175 167.343048 82.925003 164.61522 
C 85.652831 161.887392 87.185524 158.187144 87.185524 154.329413 
C 87.185524 150.471682 85.652831 146.771434 82.925003 144.043606 
C 80.197175 141.315778 76.496927 139.783085 72.639196 139.783085 
C 68.781465 139.783085 65.081217 141.315778 62.353389 144.043606 
C 59.625561 146.771434 58.092868 150.471682 58.092868 154.329413 
C 58.092868 158.187144 59.625561 161.887392 62.353389 164.61522 
C 65.081217 167.343048 68.781465 168.87574 72.639196 168.87574 
z
" clip-path="url(#p50061ac8bd)" style="fill: #f08080; stroke: #f08080; stroke-linejoin: miter"/>
   </g>
   <g id="patch_4">
    <path d="M 122.550738 193.365085 
C 131.176887 193.365085 139.450893 189.93788 145.550502 183.838271 
C 151.65011 177.738663 155.077316 169.464657 155.077316 160.838508 
C 155.077316 152.212358 151.65011 143.938353 145.550502 137.838744 
C 139.450893 131.739136 131.176887 128.31193 122.550738 128.31193 
C 113.924589 128.31193 105.650583 131.739136 99.550975 137.838744 
C 93.451366 143.938353 90.024161 152.212358 90.024161 160.838508 
C 90.024161 169.464657 93.451366 177.738663 99.550975 183.838271 
C 105.650583 189.93788 113.924589 193.365085 122.550738 193.365085 
z
" clip-path="url(#p50061ac8bd)" style="fill: #f08080; stroke: #f08080; stroke-linejoin: miter"/>
   </g>
   <g id="patch_5">
    <path d="M 161.724254 143.778412 
C 165.581986 143.778412 169.282233 142.245719 172.010061 139.517891 
C 174.737889 136.790063 176.270582 133.089815 176.270582 129.232084 
C 176.270582 125.374353 174.737889 121.674105 172.010061 118.946277 
C 169.282233 116.218449 165.581986 114.685757 161.724254 114.685757 
C 157.866523 114.685757 154.166275 116.218449 151.438447 118.946277 
C 148.710619 121.674105 147.177927 125.374353 147.177927 129.232084 
C 147.177927 133.089815 148.710619 136.790063 151.438447 139.517891 
C 154.166275 142.245719 157.866523 143.778412 161.724254 143.778412 
z
" clip-path="url(#p50061ac8bd)" style="fill: #f08080; stroke: #f08080; stroke-linejoin: miter"/>
   </g>
   <g id="patch_6">
    <path d="M 34.143711 126.773646 
C 38.985125 126.773646 43.628899 124.850132 47.052296 121.426735 
C 50.475693 118.003338 52.399207 113.359564 52.399207 108.51815 
C 52.399207 103.676735 50.475693 99.032961 47.052296 95.609564 
C 43.628899 92.186168 38.985125 90.262653 34.143711 90.262653 
C 29.302296 90.262653 24.658522 92.186168 21.235125 95.609564 
C 17.811729 99.032961 15.888214 103.676735 15.888214 108.51815 
C 15.888214 113.359564 17.811729 118.003338 21.235125 121.426735 
C 24.658522 124.850132 29.302296 126.773646 34.143711 126.773646 
z
" clip-path="url(#p50061ac8bd)" style="fill: #f08080; stroke: #f08080; stroke-linejoin: miter"/>
   </g>
   <g id="patch_7">
    <path d="M 83.428152 137.816566 
C 90.798338 137.816566 97.867651 134.88836 103.079159 129.676852 
C 108.290667 124.465344 111.218872 117.396031 111.218872 110.025846 
C 111.218872 102.655661 108.290667 95.586347 103.079159 90.374839 
C 97.867651 85.163331 90.798338 82.235126 83.428152 82.235126 
C 76.057967 82.235126 68.988654 85.163331 63.777146 90.374839 
C 58.565638 95.586347 55.637432 102.655661 55.637432 110.025846 
C 55.637432 117.396031 58.565638 124.465344 63.777146 129.676852 
C 68.988654 134.88836 76.057967 137.816566 83.428152 137.816566 
z
" clip-path="url(#p50061ac8bd)" style="fill: #f08080; stroke: #f08080; stroke-linejoin: miter"/>
   </g>
   <g id="patch_8">
    <path d="M 132.812107 125.835909 
C 137.691794 125.835909 142.372278 123.897189 145.822738 120.446729 
C 149.273198 116.99627 151.211918 112.315785 151.211918 107.436098 
C 151.211918 102.556411 149.273198 97.875927 145.822738 94.425467 
C 142.372278 90.975008 137.691794 89.036287 132.812107 89.036287 
C 127.93242 89.036287 123.251936 90.975008 119.801476 94.425467 
C 116.351016 97.875927 114.412296 102.556411 114.412296 107.436098 
C 114.412296 112.315785 116.351016 116.99627 119.801476 120.446729 
C 123.251936 123.897189 127.93242 125.835909 132.812107 125.835909 
z
" clip-path="url(#p50061ac8bd)" style="fill: #f08080; stroke: #f08080; stroke-linejoin: miter"/>
   </g>
   <g id="patch_9">
    <path d="M 148.781312 89.551556 
C 152.491559 89.551556 156.050344 88.077459 158.673885 85.453918 
C 161.297426 82.830377 162.771522 79.271593 162.771522 75.561346 
C 162.771522 71.851099 161.297426 68.292314 158.673885 65.668774 
C 156.050344 63.045233 152.491559 61.571136 148.781312 61.571136 
C 145.071065 61.571136 141.512281 63.045233 138.88874 65.668774 
C 136.265199 68.292314 134.791102 71.851099 134.791102 75.561346 
C 134.791102 79.271593 136.265199 82.830377 138.88874 85.453918 
C 141.512281 88.077459 145.071065 89.551556 148.781312 89.551556 
z
" clip-path="url(#p50061ac8bd)" style="fill: #f08080; stroke: #f08080; stroke-linejoin: miter"/>
   </g>
   <g id="patch_10">
    <path d="M 60.113607 83.953064 
C 67.014527 83.953064 73.633731 81.2113 78.513418 76.331613 
C 83.393105 71.451926 86.134869 64.832721 86.134869 57.931802 
C 86.134869 51.030882 83.393105 44.411678 78.513418 39.531991 
C 73.633731 34.652304 67.014527 31.91054 60.113607 31.91054 
C 53.212688 31.91054 46.593483 34.652304 41.713797 39.531991 
C 36.83411 44.411678 34.092345 51.030882 34.092345 57.931802 
C 34.092345 64.832721 36.83411 71.451926 41.713797 76.331613 
C 46.593483 81.2113 53.212688 83.953064 60.113607 83.953064 
z
" clip-path="url(#p50061ac8bd)" style="fill: #f08080; stroke: #f08080; stroke-linejoin: miter"/>
   </g>
   <g id="patch_11">
    <path d="M 111.016567 86.70112 
C 116.867106 86.70112 122.47881 84.376676 126.615766 80.23972 
C 130.752721 76.102764 133.077165 70.491061 133.077165 64.640522 
C 133.077165 58.789983 130.752721 53.178279 126.615766 49.041323 
C 122.47881 44.904367 116.867106 42.579923 111.016567 42.579923 
C 105.166028 42.579923 99.554324 44.904367 95.417368 49.041323 
C 91.280413 53.178279 88.955969 58.789983 88.955969 64.640522 
C 88.955969 70.491061 91.280413 76.102764 95.417368 80.23972 
C 99.554324 84.376676 105.166028 86.70112 111.016567 86.70112 
z
" clip-path="url(#p50061ac8bd)" style="fill: #f08080; stroke: #f08080; stroke-linejoin: miter"/>
   </g>
   <g id="text_1">
    <!-- RDY -->
    <g transform="translate(22.005594 153.535911) scale(0.130294 -0.130294)">
     <defs>
      <path id="DejaVuSans-52" d="M 2841 2188 
Q 3044 2119 3236 1894 
Q 3428 1669 3622 1275 
L 4263 0 
L 3584 0 
L 2988 1197 
Q 2756 1666 2539 1819 
Q 2322 1972 1947 1972 
L 1259 1972 
L 1259 0 
L 628 0 
L 628 4666 
L 2053 4666 
Q 2853 4666 3247 4331 
Q 3641 3997 3641 3322 
Q 3641 2881 3436 2590 
Q 3231 2300 2841 2188 
z
M 1259 4147 
L 1259 2491 
L 2053 2491 
Q 2509 2491 2742 2702 
Q 2975 2913 2975 3322 
Q 2975 3731 2742 3939 
Q 2509 4147 2053 4147 
L 1259 4147 
z
" transform="scale(0.015625)"/>
      <path id="DejaVuSans-44" d="M 1259 4147 
L 1259 519 
L 2022 519 
Q 2988 519 3436 956 
Q 3884 1394 3884 2338 
Q 3884 3275 3436 3711 
Q 2988 4147 2022 4147 
L 1259 4147 
z
M 628 4666 
L 1925 4666 
Q 3281 4666 3915 4102 
Q 4550 3538 4550 2338 
Q 4550 1131 3912 565 
Q 3275 0 1925 0 
L 628 0 
L 628 4666 
z
" transform="scale(0.015625)"/>
      <path id="DejaVuSans-59" d="M -13 4666 
L 666 4666 
L 1959 2747 
L 3244 4666 
L 3922 4666 
L 2272 2222 
L 2272 0 
L 1638 0 
L 1638 2222 
L -13 4666 
z
" transform="scale(0.015625)"/>
     </defs>
     <use xlink:href="#DejaVuSans-52"/>
     <use xlink:href="#DejaVuSans-44" transform="translate(69.482422 0)"/>
     <use xlink:href="#DejaVuSans-59" transform="translate(140.984375 0)"/>
    </g>
   </g>
   <g id="text_2">
    <!-- EW -->
    <g transform="translate(61.073612 158.267867) scale(0.14273 -0.14273)">
     <defs>
      <path id="DejaVuSans-45" d="M 628 4666 
L 3578 4666 
L 3578 4134 
L 1259 4134 
L 1259 2753 
L 3481 2753 
L 3481 2222 
L 1259 2222 
L 1259 531 
L 3634 531 
L 3634 0 
L 628 0 
L 628 4666 
z
" transform="scale(0.015625)"/>
      <path id="DejaVuSans-57" d="M 213 4666 
L 850 4666 
L 1831 722 
L 2809 4666 
L 3519 4666 
L 4500 722 
L 5478 4666 
L 6119 4666 
L 4947 0 
L 4153 0 
L 3169 4050 
L 2175 0 
L 1381 0 
L 213 4666 
z
" transform="scale(0.015625)"/>
     </defs>
     <use xlink:href="#DejaVuSans-45"/>
     <use xlink:href="#DejaVuSans-57" transform="translate(63.183594 0)"/>
    </g>
   </g>
   <g id="text_3">
    <!-- FMS -->
    <g transform="translate(100.499204 166.709608) scale(0.212769 -0.212769)">
     <defs>
      <path id="DejaVuSans-46" d="M 628 4666 
L 3309 4666 
L 3309 4134 
L 1259 4134 
L 1259 2759 
L 3109 2759 
L 3109 2228 
L 1259 2228 
L 1259 0 
L 628 0 
L 628 4666 
z
" transform="scale(0.015625)"/>
      <path id="DejaVuSans-4d" d="M 628 4666 
L 1569 4666 
L 2759 1491 
L 3956 4666 
L 4897 4666 
L 4897 0 
L 4281 0 
L 4281 4097 
L 3078 897 
L 2444 897 
L 1241 4097 
L 1241 0 
L 628 0 
L 628 4666 
z
" transform="scale(0.015625)"/>
      <path id="DejaVuSans-53" d="M 3425 4513 
L 3425 3897 
Q 3066 4069 2747 4153 
Q 2428 4238 2131 4238 
Q 1616 4238 1336 4038 
Q 1056 3838 1056 3469 
Q 1056 3159 1242 3001 
Q 1428 2844 1947 2747 
L 2328 2669 
Q 3034 2534 3370 2195 
Q 3706 1856 3706 1288 
Q 3706 609 3251 259 
Q 2797 -91 1919 -91 
Q 1588 -91 1214 -16 
Q 841 59 441 206 
L 441 856 
Q 825 641 1194 531 
Q 1563 422 1919 422 
Q 2459 422 2753 634 
Q 3047 847 3047 1241 
Q 3047 1584 2836 1778 
Q 2625 1972 2144 2069 
L 1759 2144 
Q 1053 2284 737 2584 
Q 422 2884 422 3419 
Q 422 4038 858 4394 
Q 1294 4750 2059 4750 
Q 2388 4750 2728 4690 
Q 3069 4631 3425 4513 
z
" transform="scale(0.015625)"/>
     </defs>
     <use xlink:href="#DejaVuSans-46"/>
     <use xlink:href="#DejaVuSans-4d" transform="translate(57.519531 0)"/>
     <use xlink:href="#DejaVuSans-53" transform="translate(143.798828 0)"/>
    </g>
   </g>
   <g id="text_4">
    <!-- TFX -->
    <g transform="translate(152.822962 131.85772) scale(0.095153 -0.095153)">
     <defs>
      <path id="DejaVuSans-54" d="M -19 4666 
L 3928 4666 
L 3928 4134 
L 2272 4134 
L 2272 0 
L 1638 0 
L 1638 4134 
L -19 4134 
L -19 4666 
z
" transform="scale(0.015625)"/>
      <path id="DejaVuSans-58" d="M 403 4666 
L 1081 4666 
L 2241 2931 
L 3406 4666 
L 4084 4666 
L 2584 2425 
L 4184 0 
L 3506 0 
L 2194 1984 
L 872 0 
L 191 0 
L 1856 2491 
L 403 4666 
z
" transform="scale(0.015625)"/>
     </defs>
     <use xlink:href="#DejaVuSans-54"/>
     <use xlink:href="#DejaVuSans-46" transform="translate(61.083984 0)"/>
     <use xlink:href="#DejaVuSans-58" transform="translate(118.603516 0)"/>
    </g>
   </g>
   <g id="text_5">
    <!-- VTRS -->
    <g transform="translate(22.390755 110.98951) scale(0.089562 -0.089562)">
     <defs>
      <path id="DejaVuSans-56" d="M 1831 0 
L 50 4666 
L 709 4666 
L 2188 738 
L 3669 4666 
L 4325 4666 
L 2547 0 
L 1831 0 
z
" transform="scale(0.015625)"/>
     </defs>
     <use xlink:href="#DejaVuSans-56"/>
     <use xlink:href="#DejaVuSans-54" transform="translate(68.408203 0)"/>
     <use xlink:href="#DejaVuSans-52" transform="translate(129.492188 0)"/>
     <use xlink:href="#DejaVuSans-53" transform="translate(198.974609 0)"/>
    </g>
   </g>
   <g id="text_6">
    <!-- ICUI -->
    <g transform="translate(69.656487 113.788049) scale(0.136343 -0.136343)">
     <defs>
      <path id="DejaVuSans-49" d="M 628 4666 
L 1259 4666 
L 1259 0 
L 628 0 
L 628 4666 
z
" transform="scale(0.015625)"/>
      <path id="DejaVuSans-43" d="M 4122 4306 
L 4122 3641 
Q 3803 3938 3442 4084 
Q 3081 4231 2675 4231 
Q 1875 4231 1450 3742 
Q 1025 3253 1025 2328 
Q 1025 1406 1450 917 
Q 1875 428 2675 428 
Q 3081 428 3442 575 
Q 3803 722 4122 1019 
L 4122 359 
Q 3791 134 3420 21 
Q 3050 -91 2638 -91 
Q 1578 -91 968 557 
Q 359 1206 359 2328 
Q 359 3453 968 4101 
Q 1578 4750 2638 4750 
Q 3056 4750 3426 4639 
Q 3797 4528 4122 4306 
z
" transform="scale(0.015625)"/>
      <path id="DejaVuSans-55" d="M 556 4666 
L 1191 4666 
L 1191 1831 
Q 1191 1081 1462 751 
Q 1734 422 2344 422 
Q 2950 422 3222 751 
Q 3494 1081 3494 1831 
L 3494 4666 
L 4128 4666 
L 4128 1753 
Q 4128 841 3676 375 
Q 3225 -91 2344 -91 
Q 1459 -91 1007 375 
Q 556 841 556 1753 
L 556 4666 
z
" transform="scale(0.015625)"/>
     </defs>
     <use xlink:href="#DejaVuSans-49"/>
     <use xlink:href="#DejaVuSans-43" transform="translate(29.492188 0)"/>
     <use xlink:href="#DejaVuSans-55" transform="translate(99.316406 0)"/>
     <use xlink:href="#DejaVuSans-49" transform="translate(172.509766 0)"/>
    </g>
   </g>
   <g id="text_7">
    <!-- BSX -->
    <g transform="translate(120.845646 110.757294) scale(0.12036 -0.12036)">
     <defs>
      <path id="DejaVuSans-42" d="M 1259 2228 
L 1259 519 
L 2272 519 
Q 2781 519 3026 730 
Q 3272 941 3272 1375 
Q 3272 1813 3026 2020 
Q 2781 2228 2272 2228 
L 1259 2228 
z
M 1259 4147 
L 1259 2741 
L 2194 2741 
Q 2656 2741 2882 2914 
Q 3109 3088 3109 3444 
Q 3109 3797 2882 3972 
Q 2656 4147 2194 4147 
L 1259 4147 
z
M 628 4666 
L 2241 4666 
Q 2963 4666 3353 4366 
Q 3744 4066 3744 3513 
Q 3744 3084 3544 2831 
Q 3344 2578 2956 2516 
Q 3422 2416 3680 2098 
Q 3938 1781 3938 1306 
Q 3938 681 3513 340 
Q 3088 0 2303 0 
L 628 0 
L 628 4666 
z
" transform="scale(0.015625)"/>
     </defs>
     <use xlink:href="#DejaVuSans-42"/>
     <use xlink:href="#DejaVuSans-53" transform="translate(66.853516 0)"/>
     <use xlink:href="#DejaVuSans-58" transform="translate(130.330078 0)"/>
    </g>
   </g>
   <g id="text_8">
    <!-- PHG -->
    <g transform="translate(139.035627 78.086602) scale(0.091516 -0.091516)">
     <defs>
      <path id="DejaVuSans-50" d="M 1259 4147 
L 1259 2394 
L 2053 2394 
Q 2494 2394 2734 2622 
Q 2975 2850 2975 3272 
Q 2975 3691 2734 3919 
Q 2494 4147 2053 4147 
L 1259 4147 
z
M 628 4666 
L 2053 4666 
Q 2838 4666 3239 4311 
Q 3641 3956 3641 3272 
Q 3641 2581 3239 2228 
Q 2838 1875 2053 1875 
L 1259 1875 
L 1259 0 
L 628 0 
L 628 4666 
z
" transform="scale(0.015625)"/>
      <path id="DejaVuSans-48" d="M 628 4666 
L 1259 4666 
L 1259 2753 
L 3553 2753 
L 3553 4666 
L 4184 4666 
L 4184 0 
L 3553 0 
L 3553 2222 
L 1259 2222 
L 1259 0 
L 628 0 
L 628 4666 
z
" transform="scale(0.015625)"/>
      <path id="DejaVuSans-47" d="M 3809 666 
L 3809 1919 
L 2778 1919 
L 2778 2438 
L 4434 2438 
L 4434 434 
Q 4069 175 3628 42 
Q 3188 -91 2688 -91 
Q 1594 -91 976 548 
Q 359 1188 359 2328 
Q 359 3472 976 4111 
Q 1594 4750 2688 4750 
Q 3144 4750 3555 4637 
Q 3966 4525 4313 4306 
L 4313 3634 
Q 3963 3931 3569 4081 
Q 3175 4231 2741 4231 
Q 1884 4231 1454 3753 
Q 1025 3275 1025 2328 
Q 1025 1384 1454 906 
Q 1884 428 2741 428 
Q 3075 428 3337 486 
Q 3600 544 3809 666 
z
" transform="scale(0.015625)"/>
     </defs>
     <use xlink:href="#DejaVuSans-50"/>
     <use xlink:href="#DejaVuSans-48" transform="translate(60.302734 0)"/>
     <use xlink:href="#DejaVuSans-47" transform="translate(135.498047 0)"/>
    </g>
   </g>
   <g id="text_9">
    <!-- MDT -->
    <g transform="translate(41.0189 62.628682) scale(0.170215 -0.170215)">
     <use xlink:href="#DejaVuSans-4d"/>
     <use xlink:href="#DejaVuSans-44" transform="translate(86.279297 0)"/>
     <use xlink:href="#DejaVuSans-54" transform="translate(163.28125 0)"/>
    </g>
   </g>
   <g id="text_10">
    <!-- BAX -->
    <g transform="translate(96.187885 68.622496) scale(0.144307 -0.144307)">
     <defs>
      <path id="DejaVuSans-41" d="M 2188 4044 
L 1331 1722 
L 3047 1722 
L 2188 4044 
z
M 1831 4666 
L 2547 4666 
L 4325 0 
L 3669 0 
L 3244 1197 
L 1141 1197 
L 716 0 
L 50 0 
L 1831 4666 
z
" transform="scale(0.015625)"/>
     </defs>
     <use xlink:href="#DejaVuSans-42"/>
     <use xlink:href="#DejaVuSans-41" transform="translate(68.603516 0)"/>
     <use xlink:href="#DejaVuSans-58" transform="translate(137.011719 0)"/>
    </g>
   </g>
   <g id="text_11">
    <!-- Ground Truth -->
    <g transform="translate(50.055156 17.837813) scale(0.14 -0.14)">
     <defs>
      <path id="DejaVuSans-72" d="M 2631 2963 
Q 2534 3019 2420 3045 
Q 2306 3072 2169 3072 
Q 1681 3072 1420 2755 
Q 1159 2438 1159 1844 
L 1159 0 
L 581 0 
L 581 3500 
L 1159 3500 
L 1159 2956 
Q 1341 3275 1631 3429 
Q 1922 3584 2338 3584 
Q 2397 3584 2469 3576 
Q 2541 3569 2628 3553 
L 2631 2963 
z
" transform="scale(0.015625)"/>
      <path id="DejaVuSans-6f" d="M 1959 3097 
Q 1497 3097 1228 2736 
Q 959 2375 959 1747 
Q 959 1119 1226 758 
Q 1494 397 1959 397 
Q 2419 397 2687 759 
Q 2956 1122 2956 1747 
Q 2956 2369 2687 2733 
Q 2419 3097 1959 3097 
z
M 1959 3584 
Q 2709 3584 3137 3096 
Q 3566 2609 3566 1747 
Q 3566 888 3137 398 
Q 2709 -91 1959 -91 
Q 1206 -91 779 398 
Q 353 888 353 1747 
Q 353 2609 779 3096 
Q 1206 3584 1959 3584 
z
" transform="scale(0.015625)"/>
      <path id="DejaVuSans-75" d="M 544 1381 
L 544 3500 
L 1119 3500 
L 1119 1403 
Q 1119 906 1312 657 
Q 1506 409 1894 409 
Q 2359 409 2629 706 
Q 2900 1003 2900 1516 
L 2900 3500 
L 3475 3500 
L 3475 0 
L 2900 0 
L 2900 538 
Q 2691 219 2414 64 
Q 2138 -91 1772 -91 
Q 1169 -91 856 284 
Q 544 659 544 1381 
z
M 1991 3584 
L 1991 3584 
z
" transform="scale(0.015625)"/>
      <path id="DejaVuSans-6e" d="M 3513 2113 
L 3513 0 
L 2938 0 
L 2938 2094 
Q 2938 2591 2744 2837 
Q 2550 3084 2163 3084 
Q 1697 3084 1428 2787 
Q 1159 2491 1159 1978 
L 1159 0 
L 581 0 
L 581 3500 
L 1159 3500 
L 1159 2956 
Q 1366 3272 1645 3428 
Q 1925 3584 2291 3584 
Q 2894 3584 3203 3211 
Q 3513 2838 3513 2113 
z
" transform="scale(0.015625)"/>
      <path id="DejaVuSans-64" d="M 2906 2969 
L 2906 4863 
L 3481 4863 
L 3481 0 
L 2906 0 
L 2906 525 
Q 2725 213 2448 61 
Q 2172 -91 1784 -91 
Q 1150 -91 751 415 
Q 353 922 353 1747 
Q 353 2572 751 3078 
Q 1150 3584 1784 3584 
Q 2172 3584 2448 3432 
Q 2725 3281 2906 2969 
z
M 947 1747 
Q 947 1113 1208 752 
Q 1469 391 1925 391 
Q 2381 391 2643 752 
Q 2906 1113 2906 1747 
Q 2906 2381 2643 2742 
Q 2381 3103 1925 3103 
Q 1469 3103 1208 2742 
Q 947 2381 947 1747 
z
" transform="scale(0.015625)"/>
      <path id="DejaVuSans-20" transform="scale(0.015625)"/>
      <path id="DejaVuSans-74" d="M 1172 4494 
L 1172 3500 
L 2356 3500 
L 2356 3053 
L 1172 3053 
L 1172 1153 
Q 1172 725 1289 603 
Q 1406 481 1766 481 
L 2356 481 
L 2356 0 
L 1766 0 
Q 1100 0 847 248 
Q 594 497 594 1153 
L 594 3053 
L 172 3053 
L 172 3500 
L 594 3500 
L 594 4494 
L 1172 4494 
z
" transform="scale(0.015625)"/>
      <path id="DejaVuSans-68" d="M 3513 2113 
L 3513 0 
L 2938 0 
L 2938 2094 
Q 2938 2591 2744 2837 
Q 2550 3084 2163 3084 
Q 1697 3084 1428 2787 
Q 1159 2491 1159 1978 
L 1159 0 
L 581 0 
L 581 4863 
L 1159 4863 
L 1159 2956 
Q 1366 3272 1645 3428 
Q 1925 3584 2291 3584 
Q 2894 3584 3203 3211 
Q 3513 2838 3513 2113 
z
" transform="scale(0.015625)"/>
     </defs>
     <use xlink:href="#DejaVuSans-47"/>
     <use xlink:href="#DejaVuSans-72" transform="translate(77.490234 0)"/>
     <use xlink:href="#DejaVuSans-6f" transform="translate(116.353516 0)"/>
     <use xlink:href="#DejaVuSans-75" transform="translate(177.535156 0)"/>
     <use xlink:href="#DejaVuSans-6e" transform="translate(240.914062 0)"/>
     <use xlink:href="#DejaVuSans-64" transform="translate(304.292969 0)"/>
     <use xlink:href="#DejaVuSans-20" transform="translate(367.769531 0)"/>
     <use xlink:href="#DejaVuSans-54" transform="translate(399.556641 0)"/>
     <use xlink:href="#DejaVuSans-72" transform="translate(445.890625 0)"/>
     <use xlink:href="#DejaVuSans-75" transform="translate(487.003906 0)"/>
     <use xlink:href="#DejaVuSans-74" transform="translate(550.382812 0)"/>
     <use xlink:href="#DejaVuSans-68" transform="translate(589.591797 0)"/>
    </g>
   </g>
  </g>
 </g>
 <defs>
  <clipPath id="p50061ac8bd">
   <rect x="7.2" y="23.837813" width="177.121562" height="177.6"/>
  </clipPath>
 </defs>
</svg>
